<svg xmlns="http://www.w3.org/2000/svg" xmlns:xlink="http://www.w3.org/1999/xlink" width="90.503" height="99.1" viewBox="0 0 90.503 99.1"><defs><linearGradient id="a" x1="0.033" y1="0.501" x2="4.555" y2="0.501" gradientUnits="objectBoundingBox"><stop offset="0" stop-color="#d83d94"/><stop offset="0.489" stop-color="#a82ec9"/><stop offset="1" stop-color="#4e7edc"/></linearGradient><linearGradient id="b" x1="-1.935" y1="0.497" x2="3.624" y2="0.497" xlink:href="#a"/><linearGradient id="c" x1="-3.594" y1="0.5" x2="1.806" y2="0.5" xlink:href="#a"/><linearGradient id="d" x1="-35.577" y1="0.501" x2="0.771" y2="0.501" xlink:href="#a"/><linearGradient id="e" x1="-1.249" y1="2.246" x2="4.67" y2="-3.491" xlink:href="#a"/><linearGradient id="f" x1="-0.727" y1="1.496" x2="3.405" y2="-2.112" xlink:href="#a"/><linearGradient id="g" x1="-2.061" y1="1.529" x2="2.982" y2="-0.493" xlink:href="#a"/><linearGradient id="h" x1="-0.953" y1="1.526" x2="5.052" y2="-2.69" xlink:href="#a"/><linearGradient id="i" x1="-1.042" y1="4.377" x2="1.734" y2="-2.623" xlink:href="#a"/><linearGradient id="j" x1="-4.585" y1="2.421" x2="3.01" y2="-0.401" xlink:href="#a"/><linearGradient id="k" x1="-0.93" y1="1.252" x2="2.542" y2="-0.57" xlink:href="#a"/><linearGradient id="l" x1="-1.37" y1="2.031" x2="4.125" y2="-2.456" xlink:href="#a"/><linearGradient id="m" x1="-1.298" y1="1.709" x2="8.093" y2="-4.54" xlink:href="#a"/><linearGradient id="n" x1="-0.855" y1="3.425" x2="2.014" y2="-2.741" xlink:href="#a"/><linearGradient id="o" x1="-1.27" y1="2.053" x2="1.057" y2="-0.006" xlink:href="#a"/><linearGradient id="p" x1="-5.178" y1="1.321" x2="3.214" y2="0.089" xlink:href="#a"/><linearGradient id="q" x1="-2.841" y1="3.388" x2="8.139" y2="-6.07" xlink:href="#a"/><linearGradient id="r" x1="-1.982" y1="1.296" x2="1.991" y2="0.019" xlink:href="#a"/><linearGradient id="s" x1="-2.921" y1="2.834" x2="21.22" y2="-13.831" xlink:href="#a"/><linearGradient id="t" x1="-0.743" y1="1.936" x2="2.632" y2="-1.952" xlink:href="#a"/><linearGradient id="u" x1="-0.791" y1="3.585" x2="0.931" y2="-0.532" xlink:href="#a"/><linearGradient id="v" x1="-2.671" y1="1.652" x2="0.842" y2="0.393" xlink:href="#a"/><linearGradient id="w" x1="-0.687" y1="1.304" x2="3.286" y2="-1.388" xlink:href="#a"/><linearGradient id="x" x1="-3.401" y1="3.141" x2="4.93" y2="-2.504" xlink:href="#a"/><linearGradient id="y" x1="-3.123" y1="2.962" x2="5.207" y2="-2.683" xlink:href="#a"/><linearGradient id="z" x1="-6.483" y1="5.231" x2="3.846" y2="-1.768" xlink:href="#a"/><linearGradient id="aa" x1="-5.957" y1="4.876" x2="4.372" y2="-2.123" xlink:href="#a"/><linearGradient id="ab" x1="-3.496" y1="3.208" x2="6.833" y2="-3.791" xlink:href="#a"/><linearGradient id="ac" x1="-3.674" y1="3.332" x2="10.672" y2="-6.389" xlink:href="#a"/><linearGradient id="ad" x1="-3.119" y1="2.943" x2="15.326" y2="-9.556" xlink:href="#a"/><linearGradient id="ae" x1="-9.493" y1="7.263" x2="8.952" y2="-5.235" xlink:href="#a"/><linearGradient id="af" x1="-16.53" y1="12.066" x2="1.915" y2="-0.433" xlink:href="#a"/><linearGradient id="ag" x1="-15.113" y1="11.093" x2="3.332" y2="-1.405" xlink:href="#a"/><linearGradient id="ah" x1="-6.585" y1="5.315" x2="11.86" y2="-7.183" xlink:href="#a"/><linearGradient id="ai" x1="-8.78" y1="6.781" x2="5.566" y2="-2.94" xlink:href="#a"/><linearGradient id="aj" x1="-11.198" y1="8.443" x2="3.148" y2="-1.278" xlink:href="#a"/><linearGradient id="ak" x1="-6.262" y1="5.084" x2="8.084" y2="-4.637" xlink:href="#a"/></defs><g transform="translate(-201.6 -337.3)"><g transform="translate(201.6 416.467)"><path d="M210.386,421.4h2.078l8.88,19.556h-2.362l-2.267-5.1H206.135l-2.267,5.1H201.6Zm5.385,12.47-4.44-9.92-4.44,9.92Z" transform="translate(-201.6 -421.117)" fill="url(#a)"/><path d="M235.294,421.6h8.313a7.589,7.589,0,0,1,5.479,1.984,5.276,5.276,0,0,1,1.512,3.779v.095c0,3.212-2.173,5.1-5.29,5.668l5.952,7.936h-2.645l-5.668-7.558h-5.574v7.558H235.2V421.6Zm8.125,9.825c2.929,0,5.007-1.511,5.007-3.968v-.095c0-2.362-1.795-3.779-4.913-3.779h-5.952v7.841Z" transform="translate(-203.458 -421.128)" fill="url(#b)"/><path d="M265.2,421.6h2.173v11.62L278.52,421.6h2.834l-8.313,8.5,8.691,10.864h-2.74l-7.463-9.353-4.157,4.156v5.2H265.2Z" transform="translate(-205.117 -421.128)" fill="url(#c)"/><path d="M294.8,421.1h2.456v2.362H294.8Zm.095,5.479h2.173v14.36h-2.173Z" transform="translate(-206.753 -421.1)" fill="url(#d)"/></g><g transform="translate(211.86 337.3)"><path d="M255.189,388.6a5.353,5.353,0,0,0,1.228.756,15.584,15.584,0,0,1-7.274,5.007h-.283a.711.711,0,0,1-.661-.472.676.676,0,0,1,.472-.85A13.256,13.256,0,0,0,255.189,388.6Z" transform="translate(-214.435 -340.137)" fill="url(#e)"/><path d="M241.109,362.6a2.3,2.3,0,0,0,0,1.134v.283a14.237,14.237,0,0,0-10.486,7.369.8.8,0,0,1-.661.378.347.347,0,0,1-.283-.094.655.655,0,0,1-.283-.945A15.552,15.552,0,0,1,241.109,362.6Z" transform="translate(-213.392 -338.699)" fill="url(#f)"/><path d="M259.842,380.244a5.419,5.419,0,0,0-1.323-.378,16.138,16.138,0,0,0,0-3.023,14.207,14.207,0,0,0-8.219-11.62,5.411,5.411,0,0,0,.378-1.323,15.117,15.117,0,0,1,4.157,2.74,15.628,15.628,0,0,1,5.1,10.108A21.9,21.9,0,0,1,259.842,380.244Z" transform="translate(-214.553 -338.771)" fill="url(#g)"/><path d="M231.152,357.2a5.458,5.458,0,0,0,.472,1.323,22.787,22.787,0,0,0-6.9,6.235.673.673,0,0,1-.567.283c-.189,0-.283,0-.378-.094a.52.52,0,0,1-.283-.472,1.2,1.2,0,0,1,.094-.567A22.308,22.308,0,0,1,231.152,357.2Z" transform="translate(-213.071 -338.4)" fill="url(#h)"/><path d="M256.272,357.49a2.408,2.408,0,0,0-.756,1.134,22.547,22.547,0,0,0-11.714-3.307,17.448,17.448,0,0,0-2.173.095,22.031,22.031,0,0,0-2.456.378,5.461,5.461,0,0,0-.472-1.323c.945-.189,1.889-.378,2.834-.472a18.211,18.211,0,0,1,2.267-.094A23.587,23.587,0,0,1,256.272,357.49Z" transform="translate(-213.911 -338.218)" fill="url(#i)"/><path d="M268.324,374.22h-.756c-.283,0-.472.095-.661.095a22.256,22.256,0,0,0-5.007-10.77,3,3,0,0,0,.945-.945A23.245,23.245,0,0,1,268.324,374.22Z" transform="translate(-215.194 -338.699)" fill="url(#j)"/><path d="M267.978,382.495a24.606,24.606,0,0,1-2.834,8.408,23.461,23.461,0,0,1-10.108,9.542c-.094,0-.189.094-.284.094h-.094a.956.956,0,0,1-.661-.378.6.6,0,0,1,0-.567.737.737,0,0,1,.378-.378A22.457,22.457,0,0,0,266.56,382.4a3.214,3.214,0,0,0,.945.094h.472Z" transform="translate(-214.753 -339.794)" fill="url(#k)"/><path d="M268.48,401.345a31.633,31.633,0,0,1-7.841,6.329.347.347,0,0,1-.284.095h-.094a.518.518,0,0,1-.567-.378,1.2,1.2,0,0,1-.094-.567,1.3,1.3,0,0,1,.283-.378,28.759,28.759,0,0,0,7.463-6.046A2.206,2.206,0,0,0,268.48,401.345Z" transform="translate(-215.067 -340.789)" fill="url(#l)"/><path d="M222.9,354.434a30,30,0,0,0-3.873,3.873.571.571,0,0,1-.567.284c-.189,0-.283-.094-.472-.189s-.189-.283-.283-.472c0-.189,0-.378.189-.472a42.188,42.188,0,0,1,4.062-4.157C222.329,353.772,222.612,354.15,222.9,354.434Z" transform="translate(-212.75 -338.185)" fill="url(#m)"/><path d="M244.3,345.5a4.786,4.786,0,0,0-.189,1.228v.189h-1.134c-.945,0-1.889,0-2.929.095a29.763,29.763,0,0,0-12,3.779,3.4,3.4,0,0,0-.756-1.134,31.519,31.519,0,0,1,12.659-3.968c1.039-.095,2.078-.189,3.023-.189A3.11,3.11,0,0,1,244.3,345.5Z" transform="translate(-213.281 -337.749)" fill="url(#n)"/><path d="M272.073,361.693a2.93,2.93,0,0,0-1.228.567A30.126,30.126,0,0,0,251.1,347.617a2.271,2.271,0,0,0,.189-1.417,32.3,32.3,0,0,1,20.784,15.493Z" transform="translate(-214.597 -337.792)" fill="url(#o)"/><path d="M272.534,394.93a2.2,2.2,0,0,0-1.134-.756,29.909,29.909,0,0,0,4.251-18.611,33.093,33.093,0,0,0-1.417-6.9,3.311,3.311,0,0,0,1.323-.567,32.19,32.19,0,0,1-3.023,26.83Z" transform="translate(-215.72 -339.003)" fill="url(#p)"/><path d="M269.34,411.839c-1.134.85-2.267,1.606-3.4,2.362a.347.347,0,0,1-.283.094h-.094a.571.571,0,0,1-.567-.283.733.733,0,0,1,.189-.945A24.707,24.707,0,0,0,268.4,410.8,4.949,4.949,0,0,0,269.34,411.839Z" transform="translate(-215.36 -341.364)" fill="url(#q)"/><path d="M284.881,381.089a38.823,38.823,0,0,1-7.747,21.539,30.7,30.7,0,0,1-3.59,4.157,3.27,3.27,0,0,0-.945-1.039,28.689,28.689,0,0,0,3.4-4.062,37.842,37.842,0,0,0,7.463-20.784,2.081,2.081,0,0,0,.756.094A.875.875,0,0,0,284.881,381.089Z" transform="translate(-215.786 -339.711)" fill="url(#r)"/><path d="M214.482,351.445l-.756.756a.571.571,0,0,1-.567.283.715.715,0,0,1-.567-1.134c.283-.283.472-.567.756-.85A9.994,9.994,0,0,0,214.482,351.445Z" transform="translate(-212.461 -338.03)" fill="url(#s)"/><path d="M231.765,339.845c.094.189.094.283.189.378a37.6,37.6,0,0,0-10.77,5.1,29.8,29.8,0,0,0-2.74,2.078,2.514,2.514,0,0,0-.945-1.039,33.556,33.556,0,0,1,2.929-2.173,38.3,38.3,0,0,1,11.242-5.29A1.633,1.633,0,0,0,231.765,339.845Z" transform="translate(-212.739 -337.388)" fill="url(#t)"/><path d="M243.646,337.3a38.075,38.075,0,0,1,22.3,6.991,2.953,2.953,0,0,0-.85,1.039,37.714,37.714,0,0,0-21.539-6.613c-1.228,0-2.456.095-3.59.189-.661.094-1.417.189-2.078.283a3.79,3.79,0,0,0-.283-1.417l2.267-.284C241.1,337.395,242.418,337.3,243.646,337.3Z" transform="translate(-213.851 -337.3)" fill="url(#u)"/><path d="M284.687,374.163c-.189,0-.378-.094-.567-.094-.283,0-.567.094-.85.094a1.2,1.2,0,0,0-.094-.567A37.472,37.472,0,0,0,270.8,348.939a2.878,2.878,0,0,0,.756-.756.347.347,0,0,0,.094-.283A39.211,39.211,0,0,1,284.5,373.5,1.018,1.018,0,0,1,284.687,374.163Z" transform="translate(-215.686 -337.886)" fill="url(#v)"/><g transform="translate(2.021 0.283)"><circle cx="6.141" cy="6.141" r="6.141" transform="translate(21.634 32.97)" fill="url(#w)"/><circle cx="2.929" cy="2.929" r="2.929" transform="translate(26.924 21.445)" fill="url(#x)"/><circle cx="2.929" cy="2.929" r="2.929" transform="translate(38.544 42.039)" fill="url(#y)"/><circle cx="2.362" cy="2.362" r="2.362" transform="translate(40.433 19.272)" fill="url(#z)"/><circle cx="2.362" cy="2.362" r="2.362" transform="translate(48.463 36.466)" fill="url(#aa)"/><circle cx="2.362" cy="2.362" r="2.362" transform="translate(17.288 15.493)" fill="url(#ab)"/><circle cx="1.7" cy="1.7" r="1.7" transform="translate(8.313 11.998)" fill="url(#ac)"/><circle cx="1.323" cy="1.323" r="1.323" transform="translate(0 9.542)" fill="url(#ad)"/><circle cx="1.323" cy="1.323" r="1.323" transform="translate(18.138)" fill="url(#ae)"/><circle cx="1.323" cy="1.323" r="1.323" transform="translate(50.353 7.369)" fill="url(#af)"/><circle cx="1.323" cy="1.323" r="1.323" transform="translate(65.09 37.221)" fill="url(#ag)"/><circle cx="1.323" cy="1.323" r="1.323" transform="translate(52.148 66.696)" fill="url(#ah)"/><circle cx="1.7" cy="1.7" r="1.7" transform="translate(30.042 6.707)" fill="url(#ai)"/><circle cx="1.7" cy="1.7" r="1.7" transform="translate(54.321 24.751)" fill="url(#aj)"/><circle cx="1.7" cy="1.7" r="1.7" transform="translate(50.92 55.927)" fill="url(#ak)"/></g></g></g></svg>