<svg xmlns="http://www.w3.org/2000/svg" width="144.919" height="39.517" viewBox="0 0 144.919 39.517">
  <g id="Group_1173" data-name="Group 1173" transform="translate(-149.23 -31)">
    <g id="Group_1105" data-name="Group 1105" transform="translate(52.779 -41.658)">
      <g id="Group_1099" data-name="Group 1099" transform="translate(141.482 80.658)">
        <path id="Path_45" data-name="Path 45" d="M211.3,421.4h2.294l9.8,21.583h-2.607l-2.5-5.63H206.6l-2.5,5.63h-2.5Zm5.943,13.763-4.9-10.948-4.9,10.948Z" transform="translate(-201.6 -421.087)" fill="#fff"/>
        <path id="Path_46" data-name="Path 46" d="M235.3,421.6h9.176a8.376,8.376,0,0,1,6.048,2.19,5.823,5.823,0,0,1,1.668,4.171v.1c0,3.545-2.4,5.63-5.839,6.256l6.569,8.758h-2.919l-6.256-8.341H237.6v8.341h-2.4V421.6Zm8.967,10.844c3.232,0,5.526-1.668,5.526-4.379v-.1c0-2.607-1.981-4.171-5.422-4.171h-6.569v8.654h6.465Z" transform="translate(-200.166 -421.079)" fill="#fff"/>
        <path id="Path_47" data-name="Path 47" d="M265.2,421.6h2.4v12.825L279.9,421.6h3.128l-9.176,9.384,9.593,11.991h-3.024l-8.237-10.323L267.6,437.24v5.735h-2.4V421.6Z" transform="translate(-198.886 -421.079)" fill="#fff"/>
        <path id="Path_48" data-name="Path 48" d="M294.8,421.1h2.711v2.607H294.8Zm.1,6.047h2.4V443h-2.4Z" transform="translate(-197.623 -421.1)" fill="#fff"/>
      </g>
    </g>
    <g id="Group_1103" data-name="Group 1103" transform="translate(149.23 31)">
      <g id="Group_1100" data-name="Group 1100">
        <path id="Path_49" data-name="Path 49" d="M251.975,388.6a2.9,2.9,0,0,0,.665.409,8.444,8.444,0,0,1-3.941,2.713h-.154a.385.385,0,0,1-.358-.256.366.366,0,0,1,.256-.461A7.183,7.183,0,0,0,251.975,388.6Z" transform="translate(-229.894 -362.341)" fill="#fff"/>
        <path id="Path_50" data-name="Path 50" d="M235.7,362.6a1.247,1.247,0,0,0,0,.614v.154a7.714,7.714,0,0,0-5.682,3.993.431.431,0,0,1-.358.2.188.188,0,0,1-.154-.051.355.355,0,0,1-.154-.512A8.426,8.426,0,0,1,235.7,362.6Z" transform="translate(-220.68 -349.65)" fill="#fff"/>
        <path id="Path_51" data-name="Path 51" d="M255.47,372.755a2.932,2.932,0,0,0-.717-.2,8.752,8.752,0,0,0,0-1.638,7.7,7.7,0,0,0-4.453-6.3,2.934,2.934,0,0,0,.2-.717,8.191,8.191,0,0,1,2.252,1.484,8.468,8.468,0,0,1,2.764,5.477A11.864,11.864,0,0,1,255.47,372.755Z" transform="translate(-230.931 -350.284)" fill="#fff"/>
        <path id="Path_52" data-name="Path 52" d="M227.646,357.2a2.96,2.96,0,0,0,.256.717,12.347,12.347,0,0,0-3.737,3.378.365.365,0,0,1-.307.154c-.1,0-.154,0-.2-.051a.281.281,0,0,1-.154-.256.649.649,0,0,1,.051-.307A12.088,12.088,0,0,1,227.646,357.2Z" transform="translate(-217.849 -347.014)" fill="#fff"/>
        <path id="Path_53" data-name="Path 53" d="M248.221,355.845a1.305,1.305,0,0,0-.409.614,12.217,12.217,0,0,0-6.347-1.792,9.457,9.457,0,0,0-1.177.051,11.958,11.958,0,0,0-1.331.2,2.959,2.959,0,0,0-.256-.717c.512-.1,1.024-.2,1.536-.256a9.853,9.853,0,0,1,1.228-.051A12.78,12.78,0,0,1,248.221,355.845Z" transform="translate(-225.269 -345.403)" fill="#fff"/>
        <path id="Path_54" data-name="Path 54" d="M265.381,368.9h-.41c-.154,0-.256.051-.358.051a12.059,12.059,0,0,0-2.713-5.835,1.627,1.627,0,0,0,.512-.512A12.6,12.6,0,0,1,265.381,368.9Z" transform="translate(-236.593 -349.65)" fill="#fff"/>
        <path id="Path_55" data-name="Path 55" d="M261.539,382.451A13.332,13.332,0,0,1,260,387.007a12.711,12.711,0,0,1-5.477,5.17c-.051,0-.1.051-.154.051h-.051a.518.518,0,0,1-.358-.2.326.326,0,0,1,0-.307.4.4,0,0,1,.2-.2,12.168,12.168,0,0,0,6.6-9.111,1.74,1.74,0,0,0,.512.051h.256Z" transform="translate(-232.7 -359.314)" fill="#fff"/>
        <path id="Path_56" data-name="Path 56" d="M264.412,400.912a17.14,17.14,0,0,1-4.249,3.43.188.188,0,0,1-.154.051h-.051a.281.281,0,0,1-.307-.2.649.649,0,0,1-.051-.307.707.707,0,0,1,.154-.2A15.581,15.581,0,0,0,263.8,400.4,1.2,1.2,0,0,0,264.412,400.912Z" transform="translate(-235.471 -368.101)" fill="#fff"/>
        <path id="Path_57" data-name="Path 57" d="M220.515,353.914a16.256,16.256,0,0,0-2.1,2.1.31.31,0,0,1-.307.154c-.1,0-.154-.051-.256-.1s-.1-.154-.154-.256c0-.1,0-.2.1-.256A22.861,22.861,0,0,1,220,353.3C220.208,353.556,220.362,353.761,220.515,353.914Z" transform="translate(-215.018 -345.11)" fill="#fff"/>
        <path id="Path_58" data-name="Path 58" d="M236.514,345.463a2.594,2.594,0,0,0-.1.665v.1H235.8c-.512,0-1.024,0-1.587.051a16.126,16.126,0,0,0-6.5,2.047,1.841,1.841,0,0,0-.409-.614,17.079,17.079,0,0,1,6.859-2.15c.563-.051,1.126-.1,1.638-.1A1.686,1.686,0,0,1,236.514,345.463Z" transform="translate(-219.704 -341.266)" fill="#fff"/>
        <path id="Path_59" data-name="Path 59" d="M262.464,354.595a1.587,1.587,0,0,0-.665.307,16.323,16.323,0,0,0-10.7-7.934,1.231,1.231,0,0,0,.1-.768,17.5,17.5,0,0,1,11.261,8.395Z" transform="translate(-231.322 -341.644)" fill="#fff"/>
        <path id="Path_60" data-name="Path 60" d="M272.014,382.637a1.191,1.191,0,0,0-.614-.409,16.2,16.2,0,0,0,2.3-10.084,17.926,17.926,0,0,0-.768-3.737,1.8,1.8,0,0,0,.717-.307,17.442,17.442,0,0,1-1.638,14.537Z" transform="translate(-241.23 -352.334)" fill="#fff"/>
        <path id="Path_61" data-name="Path 61" d="M267.3,411.363c-.614.461-1.228.87-1.843,1.28a.188.188,0,0,1-.154.051h-.051a.309.309,0,0,1-.307-.154.4.4,0,0,1,.1-.512,13.389,13.389,0,0,0,1.74-1.228A2.684,2.684,0,0,0,267.3,411.363Z" transform="translate(-238.056 -373.177)" fill="#fff"/>
        <path id="Path_62" data-name="Path 62" d="M279.254,381a21.036,21.036,0,0,1-4.2,11.671,16.626,16.626,0,0,1-1.945,2.252,1.772,1.772,0,0,0-.512-.563,15.54,15.54,0,0,0,1.843-2.2,20.5,20.5,0,0,0,4.044-11.261,1.127,1.127,0,0,0,.409.051A.474.474,0,0,0,279.254,381Z" transform="translate(-241.816 -358.582)" fill="#fff"/>
        <path id="Path_63" data-name="Path 63" d="M213.556,351.012l-.41.409a.309.309,0,0,1-.307.154.387.387,0,0,1-.307-.614c.154-.154.256-.307.41-.461A5.424,5.424,0,0,0,213.556,351.012Z" transform="translate(-212.461 -343.743)" fill="#fff"/>
        <path id="Path_64" data-name="Path 64" d="M225.229,339.412c.051.1.051.154.1.2a20.369,20.369,0,0,0-5.835,2.764,16.153,16.153,0,0,0-1.484,1.126,1.362,1.362,0,0,0-.512-.563,18.189,18.189,0,0,1,1.587-1.177,20.751,20.751,0,0,1,6.091-2.867A.885.885,0,0,0,225.229,339.412Z" transform="translate(-214.92 -338.081)" fill="#fff"/>
        <path id="Path_65" data-name="Path 65" d="M240.876,337.3a20.631,20.631,0,0,1,12.08,3.788,1.6,1.6,0,0,0-.461.563,20.435,20.435,0,0,0-11.671-3.583c-.665,0-1.331.051-1.945.1-.358.051-.768.1-1.126.154a2.054,2.054,0,0,0-.154-.768l1.229-.154C239.494,337.351,240.211,337.3,240.876,337.3Z" transform="translate(-224.732 -337.3)" fill="#fff"/>
        <path id="Path_66" data-name="Path 66" d="M278.325,362.13c-.1,0-.2-.051-.307-.051-.154,0-.307.051-.461.051a.649.649,0,0,0-.051-.307,20.3,20.3,0,0,0-6.706-13.36,1.559,1.559,0,0,0,.41-.41.188.188,0,0,0,.051-.154,21.246,21.246,0,0,1,6.961,13.872A.552.552,0,0,1,278.325,362.13Z" transform="translate(-240.938 -342.474)" fill="#fff"/>
      </g>
      <g id="Group_1102" data-name="Group 1102" transform="translate(1.095 0.154)">
        <circle id="Ellipse_42" data-name="Ellipse 42" cx="3.327" cy="3.327" r="3.327" transform="translate(11.722 17.864)" fill="#fff"/>
        <g id="Group_1101" data-name="Group 1101">
          <circle id="Ellipse_43" data-name="Ellipse 43" cx="1.587" cy="1.587" r="1.587" transform="translate(14.588 11.62)" fill="#fff"/>
          <circle id="Ellipse_44" data-name="Ellipse 44" cx="1.587" cy="1.587" r="1.587" transform="translate(20.884 22.778)" fill="#fff"/>
          <circle id="Ellipse_45" data-name="Ellipse 45" cx="1.28" cy="1.28" r="1.28" transform="translate(21.908 10.442)" fill="#fff"/>
          <circle id="Ellipse_46" data-name="Ellipse 46" cx="1.28" cy="1.28" r="1.28" transform="translate(26.259 19.758)" fill="#fff"/>
          <circle id="Ellipse_47" data-name="Ellipse 47" cx="1.28" cy="1.28" r="1.28" transform="translate(9.367 8.395)" fill="#fff"/>
          <circle id="Ellipse_48" data-name="Ellipse 48" cx="0.921" cy="0.921" r="0.921" transform="translate(4.504 6.501)" fill="#fff"/>
          <circle id="Ellipse_49" data-name="Ellipse 49" cx="0.717" cy="0.717" r="0.717" transform="translate(0 5.17)" fill="#fff"/>
          <circle id="Ellipse_50" data-name="Ellipse 50" cx="0.717" cy="0.717" r="0.717" transform="translate(9.828)" fill="#fff"/>
          <circle id="Ellipse_51" data-name="Ellipse 51" cx="0.717" cy="0.717" r="0.717" transform="translate(27.283 3.993)" fill="#fff"/>
          <circle id="Ellipse_52" data-name="Ellipse 52" cx="0.717" cy="0.717" r="0.717" transform="translate(35.268 20.168)" fill="#fff"/>
          <circle id="Ellipse_53" data-name="Ellipse 53" cx="0.717" cy="0.717" r="0.717" transform="translate(28.255 36.138)" fill="#fff"/>
          <circle id="Ellipse_54" data-name="Ellipse 54" cx="0.921" cy="0.921" r="0.921" transform="translate(16.278 3.634)" fill="#fff"/>
          <circle id="Ellipse_55" data-name="Ellipse 55" cx="0.921" cy="0.921" r="0.921" transform="translate(29.433 13.411)" fill="#fff"/>
          <circle id="Ellipse_56" data-name="Ellipse 56" cx="0.921" cy="0.921" r="0.921" transform="translate(27.59 30.303)" fill="#fff"/>
        </g>
      </g>
    </g>
  </g>
</svg>
