<svg xmlns="http://www.w3.org/2000/svg" xmlns:xlink="http://www.w3.org/1999/xlink" width="48" height="48" viewBox="0 0 48 48"><defs><linearGradient id="a" x1="0.5" y1="1" x2="0.5" gradientUnits="objectBoundingBox"><stop offset="0" stop-color="#00b59c"/><stop offset="1" stop-color="#9cffac"/></linearGradient><linearGradient id="b" x1="0.5" y1="1" x2="0.5" gradientUnits="objectBoundingBox"><stop offset="0" stop-color="#c3ffe8"/><stop offset="0.997" stop-color="#f0fff4"/></linearGradient></defs><path d="M47.718,14.718a1.406,1.406,0,0,0-1.124-.562H36.538a8.438,8.438,0,0,0-16.639,0H11.158L9.321,1.209A1.406,1.406,0,0,0,7.929,0H1.406a1.406,1.406,0,1,0,0,2.813h5.3L8.545,15.76h0l2.123,14.953A7.031,7.031,0,0,0,12.88,34.9a4.216,4.216,0,0,0,1.574,7.324,4.218,4.218,0,1,0,7.9.149H34.086a4.218,4.218,0,1,0,3.977-2.813h-22.5a1.406,1.406,0,1,1,0-2.813h21.07a7.059,7.059,0,0,0,6.759-5.094l4.553-15.7a1.407,1.407,0,0,0-.226-1.236Z" fill="url(#a)"/><g transform="translate(18.375 5.719)"><path d="M205.844,61a9.844,9.844,0,1,0,9.844,9.844A9.855,9.855,0,0,0,205.844,61Zm2.813,11.25H207.25v1.406a1.406,1.406,0,0,1-2.812,0V72.25h-1.406a1.406,1.406,0,0,1,0-2.813h1.406V68.031a1.406,1.406,0,1,1,2.813,0v1.406h1.406a1.406,1.406,0,1,1,0,2.813Z" transform="translate(-196 -61)" fill="url(#b)"/></g></svg>