<svg xmlns="http://www.w3.org/2000/svg" xmlns:xlink="http://www.w3.org/1999/xlink" width="43.564" height="43.564" viewBox="0 0 43.564 43.564"><defs><linearGradient id="a" x1="0.05" y1="0.95" x2="0.888" y2="0.112" gradientUnits="objectBoundingBox"><stop offset="0" stop-color="#fd3a84"/><stop offset="1" stop-color="#ffa68d"/></linearGradient><linearGradient id="b" x1="0.065" y1="0.988" x2="0.877" y2="0.131" gradientUnits="objectBoundingBox"><stop offset="0" stop-color="#ffc2cc"/><stop offset="1" stop-color="#fff2f4"/></linearGradient></defs><g transform="translate(0)"><path d="M26.973,0A16.583,16.583,0,0,0,14.378,27.381l.342,1.293,1.463.512A16.589,16.589,0,1,0,26.973,0ZM14.081,31.288l-.552-1.338-1.253-.467-.9-.9a1.277,1.277,0,0,0-1.8,0L.374,37.776a1.276,1.276,0,0,0,0,1.8l3.61,3.61a1.276,1.276,0,0,0,1.8,0L14.984,34a1.276,1.276,0,0,0,0-1.8Z" transform="translate(0)" fill="url(#a)"/></g><g transform="translate(12.276 8.897)"><path d="M167.669,110.241a1.277,1.277,0,0,0-1.035-.53h-1.746l-2.218-4.436a1.276,1.276,0,1,0-2.283,1.142l1.647,3.295h-6.117l1.647-3.295a1.276,1.276,0,1,0-2.283-1.142l-2.218,4.436h-1.746a1.276,1.276,0,0,0-1.211,1.68l2.553,7.658a1.277,1.277,0,0,0,1.211.873h10.21a1.276,1.276,0,0,0,1.211-.873l2.553-7.658A1.276,1.276,0,0,0,167.669,110.241Zm-21.287,12.812-2.1,2.1,1.8,1.8,2.1-2.1A16.72,16.72,0,0,1,146.382,123.053Z" transform="translate(-144.28 -104.569)" fill="url(#b)"/></g></svg>