<svg xmlns="http://www.w3.org/2000/svg" xmlns:xlink="http://www.w3.org/1999/xlink" width="51.637" height="42.107" viewBox="0 0 51.637 42.107"><defs><linearGradient id="a" x1="0.5" x2="0.5" y2="1" gradientUnits="objectBoundingBox"><stop offset="0" stop-color="#9e2084"/><stop offset="0.451" stop-color="#e81780"/><stop offset="1" stop-color="#f38118"/></linearGradient><linearGradient id="e" x1="0.5" x2="0.5" y2="1" gradientUnits="objectBoundingBox"><stop offset="0" stop-color="#d83d94"/><stop offset="0.489" stop-color="#a82ec9"/><stop offset="1" stop-color="#4e7edc"/></linearGradient></defs><g transform="translate(0 -47.248)"><g transform="translate(0 47.248)"><g transform="translate(0)"><g transform="translate(0 11.151)"><path d="M69,220.2l3.971-20.555h-42.2l3.918,20.282a3.652,3.652,0,0,0,3.586,2.959H66.923A3.767,3.767,0,0,0,69,220.2Z" transform="translate(-27.669 -195.421)" fill="url(#a)"/><path d="M371.433,199.64l-3.918,20.282a3.652,3.652,0,0,1-3.586,2.959H368.3a3.652,3.652,0,0,0,3.586-2.959L375.8,199.64Z" transform="translate(-327.226 -195.421)" fill="url(#a)"/><path d="M48.012,161.379v-3.306l-.621-.263H1.451A1.451,1.451,0,0,0,0,159.261v1.956a1.451,1.451,0,0,0,1.451,1.451H45.94C48.012,162.668,48.012,161.9,48.012,161.379Z" transform="translate(0 -157.81)" fill="url(#a)"/><path d="M459.764,157.81h-2.795v3.407a1.451,1.451,0,0,1-1.451,1.451h4.246a1.451,1.451,0,0,0,1.451-1.451v-1.956A1.451,1.451,0,0,0,459.764,157.81Z" transform="translate(-409.578 -157.81)" fill="url(#a)"/></g><g transform="translate(13.817 21.452)"><g transform="translate(0 0)"><path d="M140.194,272.376a1.56,1.56,0,0,1-1.534-1.289l-1.638-9.306a1.56,1.56,0,1,1,3.072-.541l1.638,9.306a1.561,1.561,0,0,1-1.538,1.83Z" transform="translate(-136.997 -259.95)" fill="#d6e4ea"/></g><g transform="translate(10.442 0)"><path d="M242.095,272.377a1.56,1.56,0,0,1-1.56-1.56v-9.306a1.56,1.56,0,0,1,3.119,0v9.306A1.56,1.56,0,0,1,242.095,272.377Z" transform="translate(-240.535 -259.952)" fill="#d6e4ea"/></g><g transform="translate(19.245)"><path d="M329.385,272.375a1.561,1.561,0,0,1-1.538-1.83l1.638-9.306a1.56,1.56,0,1,1,3.072.541l-1.638,9.306A1.56,1.56,0,0,1,329.385,272.375Z" transform="translate(-327.823 -259.949)" fill="#d6e4ea"/></g></g><g transform="translate(10.363)"><path d="M103.323,59.8l11.366-11.917a2.046,2.046,0,0,1,2.961,2.824L106.284,62.623a2.046,2.046,0,0,1-2.961-2.824Z" transform="translate(-102.757 -47.248)" fill="url(#e)"/><path d="M256.6,47.813a2.046,2.046,0,0,1,2.893.068L270.859,59.8a2.046,2.046,0,0,1-2.961,2.824L256.532,50.706A2.046,2.046,0,0,1,256.6,47.813Z" transform="translate(-240.515 -47.248)" fill="url(#e)"/></g></g></g><g transform="translate(32.516 74.558)"><g transform="translate(0 0)"><path d="M333.328,327.56a7.806,7.806,0,0,0-4.458-7.053,1.629,1.629,0,0,0-1.15-.1l-.006,0a7.4,7.4,0,0,0,0,14.2l.007,0a1.951,1.951,0,0,0,1.459-.162A7.8,7.8,0,0,0,333.328,327.56Z" transform="translate(-322.41 -320.115)" fill="url(#a)"/><path d="M377.083,318.034a7.394,7.394,0,0,0-2.08.3,7.4,7.4,0,0,1,0,14.2,7.4,7.4,0,1,0,2.08-14.5Z" transform="translate(-369.699 -318.034)" fill="url(#a)"/><g transform="translate(3.029 4.178)"><path d="M354.769,365.605l-2.159-2.7a.779.779,0,1,1,1.218-.973l1.6,2,3.949-4.225a.779.779,0,0,1,1.138,1.064l-4.565,4.884A.78.78,0,0,1,354.769,365.605Z" transform="translate(-352.44 -359.456)" fill="#fff"/></g></g></g></g></svg>