<svg xmlns="http://www.w3.org/2000/svg" width="18" height="18" viewBox="0 0 18 18"><g transform="translate(13.795 3.331)"><path d="M392.838,94.739a.437.437,0,1,0,.437.437A.438.438,0,0,0,392.838,94.739Z" transform="translate(-392.401 -94.739)"/></g><g transform="translate(5.608 5.608)"><path d="M149.2,145.8a3.393,3.393,0,1,0,3.393,3.393A3.4,3.4,0,0,0,149.2,145.8Z" transform="translate(-145.804 -145.804)"/></g><path d="M13.066,0H4.934A4.94,4.94,0,0,0,0,4.934v8.131A4.94,4.94,0,0,0,4.934,18h8.131A4.94,4.94,0,0,0,18,13.066V4.934A4.94,4.94,0,0,0,13.066,0ZM9,13.937A4.937,4.937,0,1,1,13.937,9,4.943,4.943,0,0,1,9,13.937Zm5.232-8.669a1.5,1.5,0,1,1,1.5-1.5A1.5,1.5,0,0,1,14.232,5.268Z"/></svg>