<svg xmlns="http://www.w3.org/2000/svg" width="46.248" height="46.437" viewBox="0 0 46.248 46.437"><g transform="translate(0 -0.001)"><path d="M128.154,25.7,116.941,36.91a3.629,3.629,0,0,1-5.133,0l-19.5-19.5a3.626,3.626,0,0,1,0-5.134L103.522,1.064a3.63,3.63,0,0,1,5.133,0l19.5,19.5a3.63,3.63,0,0,1,0,5.134Zm0,0" transform="translate(-82.97)" fill="#4395fb"/><path d="M131.817,190.44,120.6,201.653a3.629,3.629,0,0,1-5.133,0l-19.5-19.5a3.612,3.612,0,0,1-.7-.977h32.413l4.131,4.131a3.63,3.63,0,0,1,0,5.134Zm0,0" transform="translate(-86.633 -164.743)" fill="#2482ff"/><path d="M171.754,28.088l3.838-3.838,24.632,24.633-3.838,3.838Zm0,0" transform="translate(-156.176 -22.05)" fill="#2c5bab"/><path d="M294.039,181.176h-7.676L300.6,195.414l3.838-3.838Zm0,0" transform="translate(-260.391 -164.743)" fill="#274b92"/><path d="M43.709,249.847H2.494A2.494,2.494,0,0,1,0,247.353v-21.16A2.494,2.494,0,0,1,2.494,223.7H43.709a2.494,2.494,0,0,1,2.494,2.494v21.16A2.494,2.494,0,0,1,43.709,249.847Zm0,0" transform="translate(0 -203.409)" fill="#8b87ff"/><path d="M77.415,268.834v9.391a1.1,1.1,0,0,1-.878,1.08,4.2,4.2,0,0,0-2.253,1.313l0,0a4.191,4.191,0,0,0-.874,1.555,1.094,1.094,0,0,1-1.05.762H43.187a1.094,1.094,0,0,1-1.05-.762,4.2,4.2,0,0,0-3.13-2.871,1.1,1.1,0,0,1-.878-1.08v-9.391a1.105,1.105,0,0,1,.878-1.08,4.157,4.157,0,0,0,.974-.339,4.2,4.2,0,0,0,2.156-2.532,1.094,1.094,0,0,1,1.05-.762h29.17a1.094,1.094,0,0,1,1.05.762,4.2,4.2,0,0,0,3.13,2.871A1.105,1.105,0,0,1,77.415,268.834Zm0,0" transform="translate(-34.671 -240.165)" fill="#c7d2ff"/><path d="M95.981,268.834v9.391a1.1,1.1,0,0,1-.878,1.08,4.2,4.2,0,0,0-2.253,1.313l0,0H63.6a1.093,1.093,0,0,1-1.05-.762,4.2,4.2,0,0,0-3.13-2.871,1.106,1.106,0,0,1-.878-1.081v-8.492a4.2,4.2,0,0,0,2.156-2.532,1.094,1.094,0,0,1,1.05-.762h29.17a1.094,1.094,0,0,1,1.05.762,4.2,4.2,0,0,0,3.13,2.871,1.105,1.105,0,0,1,.878,1.08Zm0,0" transform="translate(-53.237 -240.165)" fill="#4640ff"/><g transform="translate(3.103 23.152)"><path d="M36.03,256.166a.908.908,0,1,1-.908-.908A.908.908,0,0,1,36.03,256.166Zm0,0" transform="translate(-34.215 -255.258)" fill="#fff"/><path d="M457,256.166a.908.908,0,1,1-.908-.908A.908.908,0,0,1,457,256.166Zm0,0" transform="translate(-417.006 -255.258)" fill="#fff"/><path d="M36.03,461.338a.908.908,0,1,1-.908-.908A.908.908,0,0,1,36.03,461.338Zm0,0" transform="translate(-34.215 -441.822)" fill="#fff"/><path d="M457,461.338a.908.908,0,1,1-.908-.908A.908.908,0,0,1,457,461.338Zm0,0" transform="translate(-417.006 -441.822)" fill="#fff"/></g><path d="M187.672,293.389a7.427,7.427,0,1,1-7.428-7.427A7.427,7.427,0,0,1,187.672,293.389Zm0,0" transform="translate(-157.143 -260.025)" fill="#1a9c91"/><path d="M378.251,357.875h-4.19a.714.714,0,0,0,0,1.428h4.19a.714.714,0,1,0,0-1.428Zm0,0" transform="translate(-339.486 -325.416)" fill="#fff"/><path d="M79.033,362.074h-4.19a.714.714,0,0,0,0,1.429h4.19a.714.714,0,0,0,0-1.429Zm0,0" transform="translate(-67.405 -329.234)" fill="#fff"/><path d="M230.356,308.185c0-3.194-3.7-2.36-3.7-3.973,0-.619.435-.933,1.293-.933a2.234,2.234,0,0,1,1.145.287.927.927,0,0,0,.419.141c.4,0,.643-.44.643-.756,0-.619-.941-.866-1.656-.947v-1.161a.714.714,0,0,0-1.428,0v1.216a2.158,2.158,0,0,0-1.838,2.243c0,2.907,3.7,1.963,3.7,3.973,0,.957-.722,1.158-1.327,1.158-1.28,0-1.4-.912-1.925-.912a.762.762,0,0,0-.654.756c0,.537.778,1.286,2.04,1.469v.984a.714.714,0,0,0,1.428,0v-1.035A2.355,2.355,0,0,0,230.356,308.185Zm0,0" transform="translate(-204.618 -272.907)" fill="#fff"/></g></svg>