<svg xmlns="http://www.w3.org/2000/svg" width="22.685" height="18.438" viewBox="0 0 22.685 18.438"><path d="M23.688,9.772v.609A13.142,13.142,0,0,1,10.461,23.619a13.071,13.071,0,0,1-7.146-1.9,7.3,7.3,0,0,0,1.107.077,9.389,9.389,0,0,0,5.771-2.2,4.639,4.639,0,0,1-4.332-3.234,4.54,4.54,0,0,0,2.1-.079A4.648,4.648,0,0,1,4.23,11.722v-.056a4.659,4.659,0,0,0,2.1.576A4.632,4.632,0,0,1,4.246,8.386a4.434,4.434,0,0,1,.632-2.26A13.227,13.227,0,0,0,14.466,10.9a4.878,4.878,0,0,1-.1-1.074,4.633,4.633,0,0,1,4.642-4.642,4.816,4.816,0,0,1,3.423,1.462,9.3,9.3,0,0,0,2.935-1.13A4.61,4.61,0,0,1,23.319,8.1,9.051,9.051,0,0,0,26,7.356,9.418,9.418,0,0,1,23.688,9.772Z" transform="translate(-3.315 -5.186)"/></svg>