<svg width="23" height="24" viewBox="0 0 23 24" fill="none" xmlns="http://www.w3.org/2000/svg">
<path d="M9.95 13.28H13.27V23.35C10.8833 23.7752 8.42292 23.4058 6.26622 22.2986C4.10952 21.1913 2.37549 19.4073 1.33 17.22H5.05C5.61069 18.0242 6.33912 18.6972 7.18505 19.1927C8.03099 19.6882 8.97432 19.9943 9.95 20.09V13.28Z" fill="#D4060E"/>
<path d="M2.27 5.28H6.57C8.146 4.02774 10.1362 3.41563 12.1435 3.56576C14.1508 3.71589 16.0278 4.61724 17.4 6.09H1.45C0.618415 7.64494 0.130885 9.3605 0.0204609 11.1204C-0.0899628 12.8803 0.179302 14.6433 0.809999 16.29H4.34C4.34 16.29 2.27 12.38 3.7 9.47H22.63C22.1588 7.01903 20.8846 4.79487 19.0085 3.14878C17.1324 1.50269 14.7614 0.528475 12.27 0.38C12.27 0.38 5.27 0.0100002 2.27 5.28V5.28ZM14.27 19.87V23.22C14.27 23.22 21.58 21.87 22.99 13.16H19.66C19.4565 14.6628 18.8472 16.0817 17.8974 17.264C16.9477 18.4463 15.6936 19.3473 14.27 19.87V19.87Z" fill="#D4060E"/>
<path d="M11.55 13.02C12.4557 13.02 13.19 12.2857 13.19 11.38C13.19 10.4743 12.4557 9.74 11.55 9.74C10.6443 9.74 9.91 10.4743 9.91 11.38C9.91 12.2857 10.6443 13.02 11.55 13.02Z" fill="#D4060E"/>
</svg>
